<?xml version="1.0" encoding="utf-8" ?><svg xmlns="http://www.w3.org/2000/svg" xmlns:xlink="http://www.w3.org/1999/xlink" width="1792" height="1024" viewBox="0 0 1792 1024"><defs><linearGradient id="gradient_0" gradientUnits="userSpaceOnUse" x1="326.99783" y1="337.61917" x2="345.42337" y2="464.98926"><stop offset="0" stop-color="#252525"/><stop offset="1" stop-color="#767575"/></linearGradient></defs><path fill="url(#gradient_0)" transform="scale(1.33333 1.33333)" d="M237.706 260.54C244.605 258.292 342.925 263.563 346.965 265.584C351.631 266.046 354.228 266.487 358.816 267.495C393.785 274.8 422.45 290.613 443.061 320.576C463.614 350.456 469.497 405.746 454.589 438.794C453.44 443.722 450.052 450.88 447.69 455.474C437.607 475.086 424.973 489.552 406.273 501.399C365.776 527.055 317.175 520.187 271.597 521.726C264.473 521.966 254.809 521.429 248.044 521.999C243.427 521.522 226.794 488.649 224.515 483.265C225.951 476.55 232.293 462.709 235.185 455.983C241.856 436.299 247.336 417.028 248.966 396.195C249.199 393.217 249.589 390.131 250.011 387.172L250.034 386.752C249.964 383.594 250.545 378.228 250.804 374.922L250.815 370.571C251.108 355.22 248.818 345.656 245.033 330.988C238.135 312.331 235.237 311.363 223.965 296.17C227.172 286.136 233.679 270.573 237.706 260.54ZM308.04 446.004C325.155 445.549 346.367 445.93 361.742 437.388C386.394 423.693 391.885 383.865 378.461 360.585C370.166 346.199 358.477 342.349 343.675 338.401C337.312 337.527 316.964 334.376 312.009 336.107C311.866 336.845 311.659 337.689 311.627 338.423C315.701 367.944 313.176 416.855 308.04 446.004Z"/><defs><linearGradient id="gradient_1" gradientUnits="userSpaceOnUse" x1="337.11023" y1="527.22266" x2="348.51614" y2="392.96573"><stop offset="0" stop-color="#222121"/><stop offset="1" stop-color="#434343"/></linearGradient></defs><path fill="url(#gradient_1)" transform="scale(1.33333 1.33333)" d="M250.011 387.172C252.267 388.601 253.636 390.388 255.188 392.457C271.227 413.843 281.772 439.274 286.483 465.546C286.805 467.345 287.198 469.358 287.663 471.135C308.628 471.112 329.324 471.243 350.172 468.393C387.9 463.235 411.925 437.184 417.341 399.358C426.4 399.978 435.469 402.666 444.401 404.378C448.435 405.151 457.425 404.76 460.294 406.925C458.708 409.801 460.564 411.994 459.881 415.22C458.67 420.931 454.018 433.506 454.589 438.794C453.44 443.722 450.052 450.88 447.69 455.474C437.607 475.086 424.973 489.552 406.273 501.399C365.776 527.055 317.175 520.187 271.597 521.726C264.473 521.966 254.809 521.429 248.044 521.999C243.427 521.522 226.794 488.649 224.515 483.265C225.951 476.55 232.293 462.709 235.185 455.983C241.856 436.299 247.336 417.028 248.966 396.195C249.199 393.217 249.589 390.131 250.011 387.172Z"/><path fill="#3F3E3E" transform="scale(1.33333 1.33333)" d="M235.185 455.983C236.466 462.797 226.694 472.033 230.683 475.032C234.452 477.865 235.087 478.628 238.047 483.274C244.182 492.908 249.474 500.37 258.35 507.656C259.43 506.515 267.292 498.037 267.847 497.868C261.429 505.868 254.197 514.195 248.044 521.999C243.427 521.522 226.794 488.649 224.515 483.265C225.951 476.55 232.293 462.709 235.185 455.983Z"/><defs><linearGradient id="gradient_2" gradientUnits="userSpaceOnUse" x1="384.366" y1="373.37561" x2="433.57385" y2="306.4278"><stop offset="0" stop-color="#474647"/><stop offset="1" stop-color="#6D6D6D"/></linearGradient></defs><path fill="url(#gradient_2)" transform="scale(1.33333 1.33333)" d="M358.816 267.495C393.785 274.8 422.45 290.613 443.061 320.576C463.614 350.456 469.497 405.746 454.589 438.794C454.018 433.506 458.67 420.931 459.881 415.22C460.564 411.994 458.708 409.801 460.294 406.925C457.425 404.76 448.435 405.151 444.401 404.378C435.469 402.666 426.4 399.978 417.341 399.358C419.295 374.201 414.279 347.42 393.272 330.773C388.207 326.76 382.262 323.875 377.171 320.022L376.811 319.745C381.775 300.668 370.66 281.502 358.816 267.495Z"/><path fill="#8E8D8D" transform="scale(1.33333 1.33333)" d="M237.706 260.54C244.605 258.292 342.925 263.563 346.965 265.584L346.091 266.22C353.191 270.013 372.101 281.306 366.673 290.594C360.783 300.674 335.96 301.602 326.255 304.904C308.76 300.198 304.112 306.378 289.047 307.261C285.293 305.061 279.888 296.047 275.464 293.878C273.762 293.044 272.13 292.072 270.511 291.088C259.697 281.863 249.417 269.416 237.706 260.54Z"/><defs><linearGradient id="gradient_3" gradientUnits="userSpaceOnUse" x1="269.16226" y1="287.4971" x2="240.70888" y2="322.82693"><stop offset="0" stop-color="#1E1E1F"/><stop offset="1" stop-color="#525252"/></linearGradient></defs><path fill="url(#gradient_3)" transform="scale(1.33333 1.33333)" d="M237.706 260.54C249.417 269.416 259.697 281.863 270.511 291.088C272.13 292.072 273.762 293.044 275.464 293.878C279.888 296.047 285.293 305.061 289.047 307.261L286.455 308.1L287.59 309.234C286.956 318.315 284.605 327.97 281.526 336.529C280.246 340.437 279.331 342.785 277.699 346.548C272.983 355.953 266.987 367.711 260.279 375.773L255.813 381.145C254.686 378.658 253.393 375.971 250.804 374.922L250.815 370.571C251.108 355.22 248.818 345.656 245.033 330.988C238.135 312.331 235.237 311.363 223.965 296.17C227.172 286.136 233.679 270.573 237.706 260.54Z"/><defs><linearGradient id="gradient_4" gradientUnits="userSpaceOnUse" x1="261.68286" y1="324.31052" x2="267.2623" y2="373.31232"><stop offset="0" stop-color="#4B4A4B"/><stop offset="1" stop-color="#737373"/></linearGradient></defs><path fill="url(#gradient_4)" transform="scale(1.33333 1.33333)" d="M245.033 330.988C245.388 329.273 245.489 328.51 245.582 326.762L246.178 326.486C255.443 333.449 264.332 341.551 274.587 347.046C276.293 343.356 277.918 339.628 279.46 335.866L281.526 336.529C280.246 340.437 279.331 342.785 277.699 346.548C272.983 355.953 266.987 367.711 260.279 375.773L255.813 381.145C254.686 378.658 253.393 375.971 250.804 374.922L250.815 370.571C251.108 355.22 248.818 345.656 245.033 330.988Z"/><path fill="#8E8D8D" transform="scale(1.33333 1.33333)" d="M250.815 370.571L251.507 367.397C253.67 367.914 256.305 373.273 260.279 375.773L255.813 381.145C254.686 378.658 253.393 375.971 250.804 374.922L250.815 370.571Z"/><path fill="#868585" transform="scale(1.33333 1.33333)" d="M270.511 291.088C272.13 292.072 273.762 293.044 275.464 293.878C279.888 296.047 285.293 305.061 289.047 307.261L286.455 308.1L287.59 309.234C286.956 318.315 284.605 327.97 281.526 336.529L279.46 335.866C282.683 329.713 284.858 315.562 285.915 308.821C282.152 303.582 275.038 296.048 270.511 291.088Z"/><path fill="#232323" transform="scale(1.33333 1.33333)" d="M287.59 309.234C315.487 309.33 350.332 311.877 375.809 322.856C378.347 324.236 386.349 328.413 387.95 330.39L389.891 333.836C386.359 337.654 366.44 341.762 360.27 341.572C354.856 341.405 349.082 336.48 343.675 338.401C337.312 337.527 316.964 334.376 312.009 336.107C311.866 336.845 311.659 337.689 311.627 338.423C311.035 339.188 310.281 340.162 309.366 341.344C301.087 344.516 291.597 345.932 282.862 347.21C280.618 347.539 279.417 347.662 277.699 346.548C279.331 342.785 280.246 340.437 281.526 336.529C284.605 327.97 286.956 318.315 287.59 309.234Z"/><path fill="#A09FA0" transform="scale(1.33333 1.33333)" d="M346.965 265.584C351.631 266.046 354.228 266.487 358.816 267.495C370.66 281.502 381.775 300.668 376.811 319.745L377.171 320.022C382.262 323.875 388.207 326.76 393.272 330.773C414.279 347.42 419.295 374.201 417.341 399.358C411.925 437.184 387.9 463.235 350.172 468.393C329.324 471.243 308.628 471.112 287.663 471.135C287.198 469.358 286.805 467.345 286.483 465.546C281.772 439.274 271.227 413.843 255.188 392.457C253.636 390.388 252.267 388.601 250.011 387.172L250.034 386.752C249.964 383.594 250.545 378.228 250.804 374.922C253.393 375.971 254.686 378.658 255.813 381.145L251.505 385.805C270.286 405.051 286.704 441.92 289.698 468.54C304.619 468.744 319.586 468.281 334.487 467.439C362.059 465.883 388.443 457.24 403.481 432.403C415.037 412.978 418.466 389.779 413.023 367.841C409.342 352.937 401.37 338.542 387.95 330.39C386.349 328.413 378.347 324.236 375.809 322.856C350.332 311.877 315.487 309.33 287.59 309.234L286.455 308.1L289.047 307.261C304.112 306.378 308.76 300.198 326.255 304.904C335.96 301.602 360.783 300.674 366.673 290.594C372.101 281.306 353.191 270.013 346.091 266.22L346.965 265.584Z"/><path fill="#3F3E3E" transform="scale(1.33333 1.33333)" d="M522.603 357.133C538.166 356.952 562.853 354.116 574.731 365.101C587.082 376.522 586.474 395.422 575.351 407.788C562.382 419.345 539.786 416.349 522.668 416.233C522.891 396.533 522.869 376.832 522.603 357.133ZM539.874 402.901C548.654 402.888 555.371 403.924 562.458 398.545C568.402 390.629 569.166 380.395 560.464 374.168C554.607 369.976 546.921 370.035 540.017 370.565C540.081 381.344 540.033 392.124 539.874 402.901Z"/><path fill="#3F3E3E" transform="scale(1.33333 1.33333)" d="M769.579 357.096C781.783 356.985 795.918 356.248 807.918 357.634C823.043 359.38 829.058 375.763 814.995 385.219C824.452 390.391 827.827 395.8 824.489 406.566C823.706 407.997 822.725 409.309 821.574 410.465C813.042 418.905 782.427 416.299 769.749 416.276L769.579 357.096ZM786.544 404.349C792.804 404.38 800.503 404.855 806.335 403.047C808.164 400.863 808.305 400.549 808.8 397.742C806.84 390.343 792.869 392.054 786.508 392.23L786.544 404.349ZM786.515 380.76C792.179 380.659 798.81 381.023 803.959 378.781C805.261 376.436 805.439 376.114 805.494 373.395C802.855 367.44 792.492 369.151 786.63 369.267L786.515 380.76Z"/><path fill="#3F3E3E" transform="scale(1.33333 1.33333)" d="M853.762 369.733C866.713 368.902 879.471 373.383 883.194 387.117C884.799 393.204 883.914 399.68 880.734 405.113C876.8 411.743 870.861 415.063 863.592 416.846C856.144 417.649 848.982 417.05 842.517 412.934C837.328 409.673 833.672 404.458 832.374 398.468C828.989 383.093 839.283 372.485 853.762 369.733ZM860.522 403.788C871.2 396.744 868.883 381.827 855.106 382.679C844.11 389.37 846.987 404.847 860.522 403.788Z"/><path fill="#3F3E3E" transform="scale(1.33333 1.33333)" d="M910.731 369.724C946.549 367.127 951.858 408.693 920.873 416.764C913.319 417.458 906.988 417.227 900.305 413.133C894.972 409.933 891.16 404.712 889.736 398.657C886.05 383.239 896.332 372.738 910.731 369.724ZM918.155 403.62C928.702 396.23 925.782 381.588 911.636 382.699C901.705 390.067 904.15 405.397 918.155 403.62Z"/><path fill="#3F3E3E" transform="scale(1.33333 1.33333)" d="M691.088 352.788L701.967 352.654C702.394 362.862 702.032 375.57 702.023 385.969C706.965 380.827 712.481 375.501 717.554 370.434C723.875 370.15 730.312 370.309 736.647 370.39L718.566 389.558L733.757 410.482L738.024 416.304C731.403 416.416 725.408 416.475 718.773 416.22C715.102 411.89 710.208 404.876 706.688 400.159L702.002 404.394L701.94 416.237L685.325 416.245C685.132 398.099 685.465 379.95 685.298 361.804C685.273 359.115 685.34 356.475 685.723 353.811C687.282 352.696 689.079 352.88 691.088 352.788Z"/><path fill="#3F3E3E" transform="scale(1.33333 1.33333)" d="M607.76 369.797C640.725 366.191 635.644 393.715 635.375 416.273C632.743 416.232 621.902 416.496 620.36 416.18C619.711 414.302 619.917 413.459 620.058 411.494C618.21 411.682 615.154 415.643 611.375 416.732C605.965 418.292 600.431 416.755 595.567 414.386C591.208 411.162 590.488 408.588 589.116 403.55C593.354 383.562 613.246 391.965 619.114 387.483C615.174 379.29 603.336 382.939 597.237 385.745C595.445 381.144 594.077 378.608 591.724 374.299C598.142 371.361 601.026 370.665 607.76 369.797ZM614.9 406.313C617.153 404.438 617.63 404.131 618.937 401.517C619.008 399.321 619.3 400.176 617.667 398.346C615.304 397.246 612.522 397.735 609.855 397.931C607.943 398.922 607.194 399.147 606.154 401.102C605.889 405.638 609.473 406.705 613.385 406.44C613.89 406.404 614.395 406.362 614.9 406.313Z"/><path fill="#3F3E3E" transform="scale(1.33333 1.33333)" d="M1052.18 369.692C1053.14 369.637 1054.1 369.607 1055.06 369.603C1073.32 369.536 1080.25 380.877 1080.22 397.717C1075.49 397.713 1049.62 396.876 1047.5 398.594C1054.63 408.842 1057.97 403.442 1067.95 401.867C1069.57 401.611 1071.53 404.221 1072.69 405.407L1076.97 409.535C1061.69 422.661 1036.09 419.067 1030.78 397.661C1027.16 383.097 1038.04 372.384 1052.18 369.692ZM1056.4 389.152C1058.84 389.262 1061.61 389.726 1063.55 388.397C1065.79 383.531 1057.59 381.515 1053.95 381.396C1051.24 382.732 1048.14 384.078 1046.99 387C1048.84 390.437 1052.79 389.152 1056.4 389.152Z"/><path fill="#3F3E3E" transform="scale(1.33333 1.33333)" d="M963.556 369.728C973.686 369.228 977.641 369.894 987.04 372.949L981.873 384.333C977.061 382.767 965.32 378.917 961.647 383.807C963.567 391.674 986.854 384.64 988.026 398.894C989.054 411.399 980.149 415.424 969.524 416.91C959.348 417.156 954.645 416.546 945.168 412.814C946.736 409.724 948.701 404.784 950.125 401.471C956.417 404.101 965.489 407.612 971.867 403.984C972.789 402.268 972.658 403.155 972.245 401.229C970.876 400.35 967.612 399.571 966.038 399.507C940.553 398.457 938.052 374.341 963.556 369.728Z"/><path fill="#3F3E3E" transform="scale(1.33333 1.33333)" d="M997.504 359.802L1014.29 359.542L1014.53 372.223L1023.79 372.398C1023.92 376.411 1023.9 380.657 1023.95 384.689L1014.03 384.653C1014.04 388.441 1013.79 402.857 1016.06 403.385C1023.9 405.207 1023.46 401.31 1026.97 413.317C1027 413.58 1026.86 414.734 1026.83 415.076C1021.65 417.405 1015.34 417.133 1009.75 416.222C992.248 413.373 999.213 388.281 996.985 384.869C989.658 385.093 988.839 378.957 991.73 373.506C993.927 371.896 994.172 372.455 997.487 372.397L997.504 359.802Z"/><path fill="#3F3E3E" transform="scale(1.33333 1.33333)" d="M1113.75 369.678C1118.74 369.179 1120.44 369.607 1120.07 375.478C1119.9 378.288 1119.74 381.18 1119.62 384C1099.48 384.086 1104.9 400.498 1104.52 416.191L1088.76 416.241C1087.72 412.531 1088.14 377.019 1088.16 370.331C1092.32 370.224 1099.08 369.856 1103.34 370.373C1104.63 370.53 1103.99 372.453 1104.83 374.572C1107.9 372.533 1109.58 371.352 1113.05 369.953L1113.75 369.678Z"/><path fill="#3F3E3E" transform="scale(1.33333 1.33333)" d="M671.494 369.703C671.808 369.672 672.122 369.645 672.437 369.622C677.988 369.214 677.941 371.452 677.639 376.464C677.492 378.905 677.418 381.542 677.329 384.002C657.364 383.792 662.751 401.195 662.806 416.354L646.512 416.275C645.838 402.267 646.285 384.726 646.18 370.383C650.637 370.228 658.777 368.857 661.812 372.015C661.927 373.204 661.846 374.256 662.603 375.1C666.069 372.646 666.66 371.221 670.835 369.904L671.494 369.703Z"/></svg>