<?xml version="1.0" encoding="utf-8" ?><svg xmlns="http://www.w3.org/2000/svg" xmlns:xlink="http://www.w3.org/1999/xlink" width="1254" height="1254" viewBox="0 0 1254 1254"><defs><linearGradient id="gradient_0" gradientUnits="userSpaceOnUse" x1="501.90305" y1="455.39777" x2="535.62561" y2="658.06311"><stop offset="0" stop-color="#3E3E3E"/><stop offset="1" stop-color="#747474"/></linearGradient></defs><path fill="url(#gradient_0)" transform="scale(1.22461 1.22461)" d="M277.998 185.085C278.269 184.654 278.576 184.248 278.917 183.87C280.173 182.505 282.443 182.641 284.26 182.567C292.751 182.908 301.244 183.158 309.74 183.317C313.486 183.405 320.597 183.367 324.048 183.96C367.021 184.96 409.972 186.771 452.878 189.391C481.843 191.044 510.839 192.763 539.455 197.743C542.947 198.35 555.031 200.123 557.862 201.001L557.45 202C558.465 203.898 564.118 209.871 565.886 211.949C568.61 215.203 571.16 218.598 573.528 222.119C591.915 249.046 606.592 290.223 598.13 322.469L598.687 322.881C602.323 325.534 607.211 328.214 611.213 330.465C663.351 359.793 688.705 406.767 693.606 465.03C698.931 462.982 699.855 462.959 705.519 465.502C724.161 473.874 740.324 485.561 759.098 493.748C767.298 497.324 792.193 518.492 796.01 498.707C795.854 573.392 763.11 656.787 709.815 709.42C659.113 759.492 592.067 781.564 522.242 786.752C497.898 788.561 474.568 788.739 450.21 788.875L360.794 789.37C342.544 789.366 319.479 788.785 301.613 789.556C297.341 789.265 295.637 787.562 293.584 783.909C289.324 776.327 285.255 768.643 281.021 761.047L261.408 725.984C257.461 718.937 253.247 711.924 249.724 704.654C248.608 702.351 247.679 700.06 247.578 697.462C247.255 689.129 261.815 659.849 265.583 650.784C268.925 642.796 272.012 634.705 274.841 626.521C292.37 577.778 302.933 526.804 306.217 475.109L306.24 474.078C306.798 466.976 307.516 459.783 308.154 452.676C308.738 444.038 308.574 435.086 308.514 426.409C305.309 379.913 297.225 335.409 269.992 296.375C264.531 288.548 251.256 274.474 247.032 266.917C244.938 263.172 263.14 224.209 264.797 218.219C269.352 207.116 273.246 194.752 277.998 185.085ZM439.533 612.026C500.534 611.945 573.512 611.959 604.209 548.011C616.351 523.317 621.461 495.758 618.979 468.352C618.547 463.212 617.315 456.671 616.506 451.443C615.834 448.91 615.146 446.38 614.447 443.856C592.739 365.441 514.616 361.136 447.415 357.564C447.588 370.906 449.287 386.836 450.176 400.39C451.385 419.075 451.994 437.794 452.002 456.519C452.019 463.82 452.256 474.624 451.607 481.618C451.682 495.049 450.582 510.486 449.596 523.988C448.135 545.565 446.012 567.093 443.232 588.54C442.561 593.751 440.932 607.996 439.533 612.026Z"/><defs><linearGradient id="gradient_1" gradientUnits="userSpaceOnUse" x1="486.65253" y1="292.76752" x2="497.35822" y2="479.26614"><stop offset="0" stop-color="#191818"/><stop offset="1" stop-color="#3E3E3E"/></linearGradient></defs><path fill="url(#gradient_1)" transform="scale(1.22461 1.22461)" d="M277.998 185.085C278.269 184.654 278.576 184.248 278.917 183.87C280.173 182.505 282.443 182.641 284.26 182.567C292.751 182.908 301.244 183.158 309.74 183.317C313.486 183.405 320.597 183.367 324.048 183.96C367.021 184.96 409.972 186.771 452.878 189.391C481.843 191.044 510.839 192.763 539.455 197.743C542.947 198.35 555.031 200.123 557.862 201.001L557.45 202C558.465 203.898 564.118 209.871 565.886 211.949C568.61 215.203 571.16 218.598 573.528 222.119C591.915 249.046 606.592 290.223 598.13 322.469C597.474 324.234 596.541 327.198 595.461 328.593C641.766 353.615 665.571 377.067 681.753 428.713C681.533 430.351 681.529 430.867 680.874 432.431C677.095 434.526 672.46 434.276 668.254 435.164C653.045 438.372 637.012 437.774 622.135 442.081C618.396 443.163 617.868 448.199 617.011 451.186L616.506 451.443C615.834 448.91 615.146 446.38 614.447 443.856C592.739 365.441 514.616 361.136 447.415 357.564C447.588 370.906 449.287 386.836 450.176 400.39C451.385 419.075 451.994 437.794 452.002 456.519C452.019 463.82 452.256 474.624 451.607 481.618C451.279 477.484 451.279 473.647 451.251 469.514C450.978 470.653 450.998 470.564 450.903 471.693C448.882 471.168 449.349 468.693 447.478 468.891C427.721 470.98 408.171 476.051 388.49 478.946C370.662 481.569 352.847 485.036 335.293 488.994C329.997 487.097 326.683 484.819 321.308 485.351C317.347 480.564 313.681 477.152 309.198 472.915C308.206 473.287 307.22 473.675 306.24 474.078C306.798 466.976 307.516 459.783 308.154 452.676C308.738 444.038 308.574 435.086 308.514 426.409C305.309 379.913 297.225 335.409 269.992 296.375C264.531 288.548 251.256 274.474 247.032 266.917C244.938 263.172 263.14 224.209 264.797 218.219C269.352 207.116 273.246 194.752 277.998 185.085Z"/><path fill="#8D8D8C" transform="scale(1.22461 1.22461)" d="M277.998 185.085C278.269 184.654 278.576 184.248 278.917 183.87C280.173 182.505 282.443 182.641 284.26 182.567C292.751 182.908 301.244 183.158 309.74 183.317C313.486 183.405 320.597 183.367 324.048 183.96C367.021 184.96 409.972 186.771 452.878 189.391C481.843 191.044 510.839 192.763 539.455 197.743C542.947 198.35 555.031 200.123 557.862 201.001L557.45 202C558.465 203.898 564.118 209.871 565.886 211.949C568.61 215.203 571.16 218.598 573.528 222.119C591.915 249.046 606.592 290.223 598.13 322.469C597.474 324.234 596.541 327.198 595.461 328.593C544.165 307.117 494.972 301.468 439.676 298.523C424.749 297.728 409.677 297.633 394.746 296.909C392.546 296.364 391.796 296.971 388.663 295.877C382.008 281.187 307.925 208.963 292.566 196.797C289.456 193.719 282.805 188.05 279.26 185.61L277.998 185.085Z"/><path fill="#A3A2A2" transform="scale(1.22461 1.22461)" d="M277.998 185.085C278.269 184.654 278.576 184.248 278.917 183.87C280.173 182.505 282.443 182.641 284.26 182.567C286.064 186.84 310.387 206.373 315.666 211.128C333.377 227.08 350.475 243.314 366.783 260.719C376.172 270.74 384.505 281.866 394.551 291.238C401.713 291.616 404.389 292.097 411.518 290.437L411.409 290.239C418.776 288.166 454.23 281.554 460.35 282.084C467.678 282.72 474.763 286.37 482.16 285.914C487.447 285.588 492.226 282.719 497.375 281.721C504.073 280.424 511.025 281.289 517.72 280.27C522.428 279.553 527.101 277.477 531.642 276.062C540.555 273.285 567.079 266.366 571.71 258.935C574.199 254.941 576.248 240.883 575.072 236.503C574.029 232.62 568.941 230.329 566.794 227.111C565.485 225.15 564.739 222.313 563.878 220.11C560.083 218.49 553.485 215.776 550.469 213.41C546.148 210.021 540.388 203.425 534.521 202.056C516.408 197.831 494.662 196.887 476.155 195.7L357.86 189.078C346.181 188.407 334.802 188.378 323.178 187.762C320.595 187.625 318.34 187.126 317.006 184.774L317.412 184.185C320.038 183.852 321.85 184.259 324.048 183.96C367.021 184.96 409.972 186.771 452.878 189.391C481.843 191.044 510.839 192.763 539.455 197.743C542.947 198.35 555.031 200.123 557.862 201.001L557.45 202C558.465 203.898 564.118 209.871 565.886 211.949C568.61 215.203 571.16 218.598 573.528 222.119C591.915 249.046 606.592 290.223 598.13 322.469C597.474 324.234 596.541 327.198 595.461 328.593C544.165 307.117 494.972 301.468 439.676 298.523C424.749 297.728 409.677 297.633 394.746 296.909C392.546 296.364 391.796 296.971 388.663 295.877C382.008 281.187 307.925 208.963 292.566 196.797C289.456 193.719 282.805 188.05 279.26 185.61L277.998 185.085Z"/><defs><linearGradient id="gradient_2" gradientUnits="userSpaceOnUse" x1="357.33435" y1="255.59492" x2="248.88928" y2="377.15439"><stop offset="0" stop-color="#1B1B1B"/><stop offset="1" stop-color="#757575"/></linearGradient></defs><path fill="url(#gradient_2)" transform="scale(1.22461 1.22461)" d="M277.998 185.085L279.26 185.61C282.805 188.05 289.456 193.719 292.566 196.797C307.925 208.963 382.008 281.187 388.663 295.877C384.925 342.715 360.858 396.947 334.722 435.048C332.437 438.379 331.422 443.294 328.684 446.938C321.036 449.218 314.861 428.004 308.514 426.409C305.309 379.913 297.225 335.409 269.992 296.375C264.531 288.548 251.256 274.474 247.032 266.917C244.938 263.172 263.14 224.209 264.797 218.219C269.352 207.116 273.246 194.752 277.998 185.085Z"/><path fill="#1A1919" transform="scale(1.22461 1.22461)" d="M279.26 185.61C282.805 188.05 289.456 193.719 292.566 196.797L292.339 197.445C290.905 198.47 289.361 198.428 287.559 198.643C286.458 199.758 285.644 200.763 284.251 201.465C273.07 199.213 279.583 193.496 279.26 185.61Z"/><defs><linearGradient id="gradient_3" gradientUnits="userSpaceOnUse" x1="384.49829" y1="382.58804" x2="314.36646" y2="375.36862"><stop offset="0" stop-color="#646464"/><stop offset="1" stop-color="#999797"/></linearGradient></defs><path fill="url(#gradient_3)" transform="scale(1.22461 1.22461)" d="M388.663 295.877C391.796 296.971 392.546 296.364 394.746 296.909C392.278 310.233 389.291 327.527 385.479 340.279C374.893 375.697 357.487 410.922 336.18 441.11C332.016 447.009 323.974 457.706 319.073 462.75C315.776 466.519 313.007 469.646 309.198 472.915C308.206 473.287 307.22 473.675 306.24 474.078C306.798 466.976 307.516 459.783 308.154 452.676C308.738 444.038 308.574 435.086 308.514 426.409C314.861 428.004 321.036 449.218 328.684 446.938C331.422 443.294 332.437 438.379 334.722 435.048C360.858 396.947 384.925 342.715 388.663 295.877Z"/><path fill="#A3A2A2" transform="scale(1.22461 1.22461)" d="M308.154 452.676L308.53 451.853C309.693 449.268 309.023 448.639 310.8 447.737C315.577 449.217 317.025 462.146 319.073 462.75C315.776 466.519 313.007 469.646 309.198 472.915C308.206 473.287 307.22 473.675 306.24 474.078C306.798 466.976 307.516 459.783 308.154 452.676Z"/><defs><linearGradient id="gradient_4" gradientUnits="userSpaceOnUse" x1="526.88965" y1="817.91119" x2="576.54852" y2="447.03717"><stop offset="0" stop-color="#181717"/><stop offset="1" stop-color="#4E4E4E"/></linearGradient></defs><path fill="url(#gradient_4)" transform="scale(1.22461 1.22461)" d="M693.606 465.03C698.931 462.982 699.855 462.959 705.519 465.502C724.161 473.874 740.324 485.561 759.098 493.748C767.298 497.324 792.193 518.492 796.01 498.707C795.854 573.392 763.11 656.787 709.815 709.42C659.113 759.492 592.067 781.564 522.242 786.752C497.898 788.561 474.568 788.739 450.21 788.875L360.794 789.37C342.544 789.366 319.479 788.785 301.613 789.556C303.874 786.228 308.396 781.13 311.079 777.926L326.596 759.135C342.718 739.569 358.518 719.741 373.99 699.657C378.069 694.382 390.718 678.431 393.456 673.536L394.831 671.089C400.772 670.605 411.996 670.983 418.446 670.985C430.08 670.945 441.713 670.754 453.343 670.411C520.189 668.815 591.032 666.513 640.373 614.742C642.432 612.858 644.36 610.724 646.203 608.623C681.246 568.666 696.6 517.563 693.606 465.03Z"/><defs><linearGradient id="gradient_5" gradientUnits="userSpaceOnUse" x1="379.27707" y1="584.64264" x2="228.74481" y2="680.16077"><stop offset="0" stop-color="#212020"/><stop offset="1" stop-color="#515050"/></linearGradient></defs><path fill="url(#gradient_5)" transform="scale(1.22461 1.22461)" d="M306.217 475.109C309.439 476.601 316.093 485.817 318.451 489C341.242 519.74 359.452 553.624 372.512 589.593C378.973 607.096 384.097 625.064 387.841 643.341C389.527 651.347 390.601 659.565 392.196 667.583C392.521 669.215 393.543 670.122 394.831 671.089L393.456 673.536C390.718 678.431 378.069 694.382 373.99 699.657C358.518 719.741 342.718 739.569 326.596 759.135L311.079 777.926C308.396 781.13 303.874 786.228 301.613 789.556C297.341 789.265 295.637 787.562 293.584 783.909C289.324 776.327 285.255 768.643 281.021 761.047L261.408 725.984C257.461 718.937 253.247 711.924 249.724 704.654C248.608 702.351 247.679 700.06 247.578 697.462C247.255 689.129 261.815 659.849 265.583 650.784C268.925 642.796 272.012 634.705 274.841 626.521C292.37 577.778 302.933 526.804 306.217 475.109Z"/><defs><linearGradient id="gradient_6" gradientUnits="userSpaceOnUse" x1="282.31244" y1="548.04456" x2="622.41156" y2="663.73529"><stop offset="0" stop-color="#908F8F"/><stop offset="1" stop-color="#B2B1B1"/></linearGradient></defs><path fill="url(#gradient_6)" transform="scale(1.22461 1.22461)" d="M306.24 474.078C307.22 473.675 308.206 473.287 309.198 472.915C313.681 477.152 317.347 480.564 321.308 485.351C362.186 538.08 387.059 599.274 398.061 664.942C424.937 665.329 451.819 664.978 478.676 663.889C536.691 661.552 590.55 655.654 634.416 613.109C636.478 611.109 638.835 608.435 640.894 606.585C641.211 609.442 640.736 611.886 640.373 614.742C591.032 666.513 520.189 668.815 453.343 670.411C441.713 670.754 430.08 670.945 418.446 670.985C411.996 670.983 400.772 670.605 394.831 671.089C393.543 670.122 392.521 669.215 392.196 667.583C390.601 659.565 389.527 651.347 387.841 643.341C384.097 625.064 378.973 607.096 372.512 589.593C359.452 553.624 341.242 519.74 318.451 489C316.093 485.817 309.439 476.601 306.217 475.109L306.24 474.078Z"/><path fill="#8D8D8C" transform="scale(1.22461 1.22461)" d="M595.461 328.593C596.541 327.198 597.474 324.234 598.13 322.469L598.687 322.881C602.323 325.534 607.211 328.214 611.213 330.465C663.351 359.793 688.705 406.767 693.606 465.03C696.6 517.563 681.246 568.666 646.203 608.623C644.36 610.724 642.432 612.858 640.373 614.742C640.736 611.886 641.211 609.442 640.894 606.585C684.599 559.26 697.596 490.162 681.753 428.713C665.571 377.067 641.766 353.615 595.461 328.593Z"/><path fill="#8D8D8C" transform="scale(1.22461 1.22461)" d="M604.209 548.011L605.097 547.93C606.27 547.819 606.949 547.674 608.095 547.428L608.703 547.883C607.864 550.335 604.312 555.764 602.748 558.169C591.38 575.76 575.387 589.882 556.524 598.985C523.848 614.995 478.691 617.697 442.152 615.583C441.44 615.542 440.378 614.608 439.889 614.121C439.467 612.865 439.513 613.329 439.533 612.026C500.534 611.945 573.512 611.959 604.209 548.011Z"/><defs><linearGradient id="gradient_7" gradientUnits="userSpaceOnUse" x1="629.42963" y1="416.79294" x2="725.05493" y2="286.36414"><stop offset="0" stop-color="#4D4C4C"/><stop offset="1" stop-color="#6C6C6C"/></linearGradient></defs><path fill="url(#gradient_7)" transform="scale(1.22461 1.22461)" d="M557.862 201.001C590.914 208.345 624.827 219.091 654.369 235.739C659.344 238.542 666.526 242.353 671.12 245.714C707.084 266.363 754.769 318.13 769.729 357.368C773.157 362.985 777.317 374.374 779.475 380.662C790.576 413.007 796.023 446.385 796.197 480.576C796.223 485.742 796.581 493.683 796.01 498.707C792.193 518.492 767.298 497.324 759.098 493.748C740.324 485.561 724.161 473.874 705.519 465.502C699.855 462.959 698.931 462.982 693.606 465.03C688.705 406.767 663.351 359.793 611.213 330.465C607.211 328.214 602.323 325.534 598.687 322.881L598.13 322.469C606.592 290.223 591.915 249.046 573.528 222.119C571.16 218.598 568.61 215.203 565.886 211.949C564.118 209.871 558.465 203.898 557.45 202L557.862 201.001Z"/><defs><linearGradient id="gradient_8" gradientUnits="userSpaceOnUse" x1="711.70569" y1="303.3316" x2="726.26642" y2="292.1546"><stop offset="0" stop-color="#868586"/><stop offset="1" stop-color="#9F9D9E"/></linearGradient></defs><path fill="url(#gradient_8)" transform="scale(1.22461 1.22461)" d="M769.729 357.368C767.216 356.847 760.175 343.971 758.467 340.933C738.688 305.767 710.315 277.693 677.564 254.517C674.844 252.592 672.098 251.101 669.143 249.575L669.206 248.858C670.442 247.591 670.527 247.296 671.12 245.714C707.084 266.363 754.769 318.13 769.729 357.368Z"/></svg>