<?xml version="1.0" encoding="utf-8" ?><svg xmlns="http://www.w3.org/2000/svg" xmlns:xlink="http://www.w3.org/1999/xlink" width="1024" height="1024" viewBox="0 0 1024 1024"><defs><linearGradient id="gradient_0" gradientUnits="userSpaceOnUse" x1="531.80383" y1="812.78094" x2="571.20868" y2="450.54422"><stop offset="0" stop-color="#3E1D05"/><stop offset="1" stop-color="#A26432"/></linearGradient></defs><path fill="url(#gradient_0)" d="M277.862 184.053C279.179 183.056 279.862 182.756 281.636 182.747C304.416 182.632 327.216 183.321 349.996 183.675C354.354 183.743 358.871 184.613 363.246 184.75C374.457 185.119 385.832 185.058 397.031 185.592C408.084 186.119 419.226 187.031 430.257 187.823C439.614 188.494 450.688 188.409 460.071 189.242C479.605 190.975 500.608 191.998 520.001 194.826C529.087 196.151 549.726 198.633 557.745 201.113C593.317 207.986 645.404 227.567 675.116 248.118C683.861 253.859 709.71 273.695 715.648 282.12C722.439 288.745 726.128 292.527 731.985 299.879C744.117 312.898 754.457 328.659 762.767 344.348C778.528 373.846 788.77 405.973 792.989 439.15C793.967 447.164 793.855 455.926 794.616 463.86C795.724 475.416 796.111 484.09 795.92 495.731C796.717 571.524 763.271 655.903 709.663 709.121C652.88 765.49 574.137 786.142 496.241 787.65C488.735 787.795 481.23 788.808 473.533 788.866L301.832 789.129C299.166 789.063 297.22 788.791 295.654 786.318C292.623 781.53 289.941 776.465 287.189 771.505C281.643 761.591 276.166 751.639 270.758 741.65C265.362 731.774 259.824 721.985 254.269 712.195C252.478 709.039 246.995 699.305 247.752 695.7C249.663 686.592 254.037 677.191 257.753 668.618L270.175 639.788C274.829 628.768 281.525 608.313 284.887 596.615C291.574 572.698 297.102 548.473 301.452 524.023C302.932 515.603 302.773 502.486 305.295 495.2C305.039 493.492 306.563 478.391 306.596 474.033C307.095 464.959 306.739 455.19 307.015 446.121C307.972 414.671 306.032 389.774 298.686 359.384C296.19 352.96 294.277 344.869 291.736 338.007C286.306 323.347 279.574 310.773 270.813 297.946C264.104 288.124 252.331 276.187 246.928 266.281C247.357 263.078 247.645 261.572 248.483 258.434C256.753 236.085 266.572 213.623 275.069 191.2C275.929 188.536 276.765 186.595 277.862 184.053ZM451.723 468.412C451.07 500.51 449.029 532.564 445.603 564.485C445.01 570.289 439.159 610.139 439.855 612.056C487.834 611.272 534.596 613.128 575.794 583.969C575.816 583.947 575.837 583.925 575.859 583.904C586.041 576.082 600.061 559.229 604.94 547.398C620.226 517.549 623.809 475.375 615.038 443.141C605.518 414.639 591.433 393.298 563.77 379.007C531.777 362.478 483.912 357.891 447.894 358.043C448.241 372.105 448.457 386.195 449.737 400.21C451.059 414.694 450.782 429.493 451.218 444.035C451.46 452.108 451.985 460.374 451.723 468.412Z"/><defs><linearGradient id="gradient_1" gradientUnits="userSpaceOnUse" x1="493.38889" y1="295.71368" x2="496.85071" y2="485.41873"><stop offset="0" stop-color="#9E6F3B"/><stop offset="1" stop-color="#CF9658"/></linearGradient></defs><path fill="url(#gradient_1)" d="M277.862 184.053C279.179 183.056 279.862 182.756 281.636 182.747C304.416 182.632 327.216 183.321 349.996 183.675C354.354 183.743 358.871 184.613 363.246 184.75C374.457 185.119 385.832 185.058 397.031 185.592C408.084 186.119 419.226 187.031 430.257 187.823C439.614 188.494 450.688 188.409 460.071 189.242C479.605 190.975 500.608 191.998 520.001 194.826C529.087 196.151 549.726 198.633 557.745 201.113C593.317 207.986 645.404 227.567 675.116 248.118C683.861 253.859 709.71 273.695 715.648 282.12C722.439 288.745 726.128 292.527 731.985 299.879C744.117 312.898 754.457 328.659 762.767 344.348C778.528 373.846 788.77 405.973 792.989 439.15C793.967 447.164 793.855 455.926 794.616 463.86C795.724 475.416 796.111 484.09 795.92 495.731C795.688 497.064 795.684 500.115 795.183 501.209C789.188 514.299 772.439 500.701 764.511 496.799C761.763 495.447 759.509 493.901 756.521 492.746C751.051 488.717 705.616 464.92 700.528 463.982C697.998 464.051 696.373 464.092 693.973 465.035L693.937 465.545L687.966 466.484C687.979 456.697 684.847 442.35 682.774 432.719C669.2 435.34 656.659 437.048 642.961 438.808C634.934 439.84 622.741 441.264 615.038 443.141C605.518 414.639 591.433 393.298 563.77 379.007C531.777 362.478 483.912 357.891 447.894 358.043C448.241 372.105 448.457 386.195 449.737 400.21C451.059 414.694 450.782 429.493 451.218 444.035C451.46 452.108 451.985 460.374 451.723 468.412C444.025 470.015 434.327 471.236 426.278 472.628L356.892 484.541C350.107 485.736 330.428 488.605 325.151 490.251C319.947 484.118 314.711 478.757 309.541 472.851C308.837 473.388 307.747 474.289 307.014 474.688L306.596 474.033C307.095 464.959 306.739 455.19 307.015 446.121C307.972 414.671 306.032 389.774 298.686 359.384C296.19 352.96 294.277 344.869 291.736 338.007C286.306 323.347 279.574 310.773 270.813 297.946C264.104 288.124 252.331 276.187 246.928 266.281C247.357 263.078 247.645 261.572 248.483 258.434C256.753 236.085 266.572 213.623 275.069 191.2C275.929 188.536 276.765 186.595 277.862 184.053Z"/><defs><linearGradient id="gradient_2" gradientUnits="userSpaceOnUse" x1="630.83392" y1="421.35089" x2="723.55304" y2="281.29886"><stop offset="0" stop-color="#D7A76C"/><stop offset="1" stop-color="#EFD1A1"/></linearGradient></defs><path fill="url(#gradient_2)" d="M557.745 201.113C593.317 207.986 645.404 227.567 675.116 248.118C683.861 253.859 709.71 273.695 715.648 282.12C722.439 288.745 726.128 292.527 731.985 299.879C744.117 312.898 754.457 328.659 762.767 344.348C778.528 373.846 788.77 405.973 792.989 439.15C793.967 447.164 793.855 455.926 794.616 463.86C795.724 475.416 796.111 484.09 795.92 495.731C795.688 497.064 795.684 500.115 795.183 501.209C789.188 514.299 772.439 500.701 764.511 496.799C761.763 495.447 759.509 493.901 756.521 492.746C751.051 488.717 705.616 464.92 700.528 463.982C697.998 464.051 696.373 464.092 693.973 465.035L693.937 465.545L687.966 466.484C687.979 456.697 684.847 442.35 682.774 432.719C682.496 431.618 682.192 430.524 681.863 429.437C666.259 376.903 641.555 353.568 595.073 328.402C596.747 326.29 597.358 324.141 598.12 321.592C606.435 283.339 589.707 241.291 565.661 211.65C562.985 208.351 559.656 204.853 557.745 201.113Z"/><path fill="#F6DEB5" d="M595.073 328.402C596.747 326.29 597.358 324.141 598.12 321.592C600.207 325.003 611.092 330.409 614.956 332.635C651.852 353.88 678.227 388.744 687.957 430.689C689.674 438.105 691.114 445.582 692.272 453.106C692.515 454.711 693.719 464.187 693.973 465.035L693.937 465.545L687.966 466.484C687.979 456.697 684.847 442.35 682.774 432.719C682.496 431.618 682.192 430.524 681.863 429.437C666.259 376.903 641.555 353.568 595.073 328.402Z"/><path fill="#F6DEB5" d="M715.875 285.399C710.959 278.954 671.968 250.449 671.669 249.608L673.483 250.773C674.488 250.303 674.523 249.466 675.116 248.118C683.861 253.859 709.71 273.695 715.648 282.12C715.126 283.586 715.411 283.884 715.875 285.399Z"/><path fill="#F6DEB5" d="M715.648 282.12C722.439 288.745 726.128 292.527 731.985 299.879C727.888 300.234 718.874 288.787 715.875 285.399C715.411 283.884 715.126 283.586 715.648 282.12Z"/><path fill="#F6DEB5" d="M277.862 184.053C279.179 183.056 279.862 182.756 281.636 182.747C304.416 182.632 327.216 183.321 349.996 183.675C354.354 183.743 358.871 184.613 363.246 184.75C374.457 185.119 385.832 185.058 397.031 185.592C408.084 186.119 419.226 187.031 430.257 187.823C439.614 188.494 450.688 188.409 460.071 189.242C479.605 190.975 500.608 191.998 520.001 194.826C529.087 196.151 549.726 198.633 557.745 201.113C559.656 204.853 562.985 208.351 565.661 211.65C589.707 241.291 606.435 283.339 598.12 321.592C597.358 324.141 596.747 326.29 595.073 328.402C550.114 307.876 489.753 301.103 440.842 298.68C425.744 297.931 410.591 297.712 395.36 296.836C393.96 296.414 391.97 296.925 388.623 295.818C380.767 278.274 308.978 211.044 292.402 196.323C287.966 192.304 282.521 187.957 277.862 184.053Z"/><defs><linearGradient id="gradient_3" gradientUnits="userSpaceOnUse" x1="350.50626" y1="252.71112" x2="295.9267" y2="308.28433"><stop offset="0" stop-color="#B98648"/><stop offset="1" stop-color="#DCB67D"/></linearGradient></defs><path fill="url(#gradient_3)" d="M277.862 184.053C282.521 187.957 287.966 192.304 292.402 196.323C308.978 211.044 380.767 278.274 388.623 295.818C384.918 324.445 379.616 346.936 368.037 373.725C366.048 379.682 361.369 388.933 358.577 394.664C356.325 398.172 347.631 414.331 345.368 415.365C334.229 414.267 311.125 384.28 303.906 374.666C302.7 373.061 300.268 361.873 299.205 358.808L298.686 359.384C296.19 352.96 294.277 344.869 291.736 338.007C286.306 323.347 279.574 310.773 270.813 297.946C264.104 288.124 252.331 276.187 246.928 266.281C247.357 263.078 247.645 261.572 248.483 258.434C256.753 236.085 266.572 213.623 275.069 191.2C275.929 188.536 276.765 186.595 277.862 184.053Z"/><path fill="#F6DEB5" d="M248.483 258.434C253.43 260.816 256.35 270.482 259.477 272.62C268.149 278.552 273.041 286.432 280.492 293.245C285.277 297.62 293.195 300.73 297.961 305.504C309.221 315.859 319.774 326.183 330.996 336.698C342.952 347.9 353.285 363.651 366.814 372.555C367.807 373.209 367.505 372.744 368.037 373.725C366.048 379.682 361.369 388.933 358.577 394.664C356.325 398.172 347.631 414.331 345.368 415.365C334.229 414.267 311.125 384.28 303.906 374.666C302.7 373.061 300.268 361.873 299.205 358.808L298.686 359.384C296.19 352.96 294.277 344.869 291.736 338.007C286.306 323.347 279.574 310.773 270.813 297.946C264.104 288.124 252.331 276.187 246.928 266.281C247.357 263.078 247.645 261.572 248.483 258.434Z"/><path fill="#9C6334" d="M277.862 184.053C282.521 187.957 287.966 192.304 292.402 196.323C281.895 207.172 280.352 200.027 275.069 191.2C275.929 188.536 276.765 186.595 277.862 184.053Z"/><defs><linearGradient id="gradient_4" gradientUnits="userSpaceOnUse" x1="338.06412" y1="370.84866" x2="297.48959" y2="468.85571"><stop offset="0" stop-color="#E9C289"/><stop offset="1" stop-color="#FBF4DC"/></linearGradient></defs><path fill="url(#gradient_4)" d="M298.686 359.384L299.205 358.808C300.268 361.873 302.7 373.061 303.906 374.666C311.125 384.28 334.229 414.267 345.368 415.365C347.631 414.331 356.325 398.172 358.577 394.664L359.221 394.505C361.268 390.58 363.206 386.6 365.031 382.567C366.498 383.515 367.038 383.509 367.708 384.84C365.812 388.103 355.431 408.138 355.348 410.497C348.826 426.225 322.135 460.752 309.541 472.851C308.837 473.388 307.747 474.289 307.014 474.688L306.596 474.033C307.095 464.959 306.739 455.19 307.015 446.121C307.972 414.671 306.032 389.774 298.686 359.384Z"/><defs><linearGradient id="gradient_5" gradientUnits="userSpaceOnUse" x1="398.27097" y1="337.65421" x2="360.32349" y2="342.57425"><stop offset="0" stop-color="#E0B582"/><stop offset="1" stop-color="#EAD4A0"/></linearGradient></defs><path fill="url(#gradient_5)" d="M388.623 295.818C391.97 296.925 393.96 296.414 395.36 296.836C393.697 298.652 391.591 313.398 390.929 316.816C389.434 324.759 387.55 332.623 385.282 340.381C379.554 359.762 371.993 378.349 362.869 396.362C361.192 399.673 357.412 407.528 355.348 410.497C355.431 408.138 365.812 388.103 367.708 384.84C367.038 383.509 366.498 383.515 365.031 382.567C363.206 386.6 361.268 390.58 359.221 394.505L358.577 394.664C361.369 388.933 366.048 379.682 368.037 373.725C379.616 346.936 384.918 324.445 388.623 295.818Z"/><defs><linearGradient id="gradient_6" gradientUnits="userSpaceOnUse" x1="503.28214" y1="456.3978" x2="541.64197" y2="657.06842"><stop offset="0" stop-color="#A36431"/><stop offset="1" stop-color="#C69A71"/></linearGradient></defs><path fill="url(#gradient_6)" d="M682.774 432.719C684.847 442.35 687.979 456.697 687.966 466.484C690.087 520.371 676.925 565.955 640.879 606.942C641.082 609.758 640.692 611.994 640.599 614.754C584.383 673.064 499.809 669.375 424.755 670.821C420.544 670.902 399.817 670.263 396.919 671.326C393.261 674.217 379.23 693.497 375.307 698.43C358.743 719.595 341.876 740.521 324.712 761.201C318.033 769.37 308.67 781.674 301.832 789.129C299.166 789.063 297.22 788.791 295.654 786.318C292.623 781.53 289.941 776.465 287.189 771.505C281.643 761.591 276.166 751.639 270.758 741.65C265.362 731.774 259.824 721.985 254.269 712.195C252.478 709.039 246.995 699.305 247.752 695.7C249.663 686.592 254.037 677.191 257.753 668.618L270.175 639.788C274.829 628.768 281.525 608.313 284.887 596.615C291.574 572.698 297.102 548.473 301.452 524.023C302.932 515.603 302.773 502.486 305.295 495.2C305.039 493.492 306.563 478.391 306.596 474.033L307.014 474.688C307.747 474.289 308.837 473.388 309.541 472.851C314.711 478.757 319.947 484.118 325.151 490.251C330.428 488.605 350.107 485.736 356.892 484.541L426.278 472.628C434.327 471.236 444.025 470.015 451.723 468.412C451.07 500.51 449.029 532.564 445.603 564.485C445.01 570.289 439.159 610.139 439.855 612.056C487.834 611.272 534.596 613.128 575.794 583.969C575.816 583.947 575.837 583.925 575.859 583.904C586.041 576.082 600.061 559.229 604.94 547.398C620.226 517.549 623.809 475.375 615.038 443.141C622.741 441.264 634.934 439.84 642.961 438.808C656.659 437.048 669.2 435.34 682.774 432.719Z"/><defs><linearGradient id="gradient_7" gradientUnits="userSpaceOnUse" x1="383.56326" y1="583.48401" x2="229.99767" y2="691.12286"><stop offset="0" stop-color="#5C2E0D"/><stop offset="1" stop-color="#9F683C"/></linearGradient></defs><path fill="url(#gradient_7)" d="M305.295 495.2C306.756 493.874 304.663 492.726 309.021 489.886C311.938 487.985 313.168 486.675 316.901 487.247C320.058 490.864 326.46 500.274 329.243 504.408C357.678 546.635 378.482 595.812 388.186 645.833C389.221 651.168 391.012 664.822 393.441 669.986C393.735 670.611 396.057 671.173 396.919 671.326C393.261 674.217 379.23 693.497 375.307 698.43C358.743 719.595 341.876 740.521 324.712 761.201C318.033 769.37 308.67 781.674 301.832 789.129C299.166 789.063 297.22 788.791 295.654 786.318C292.623 781.53 289.941 776.465 287.189 771.505C281.643 761.591 276.166 751.639 270.758 741.65C265.362 731.774 259.824 721.985 254.269 712.195C252.478 709.039 246.995 699.305 247.752 695.7C249.663 686.592 254.037 677.191 257.753 668.618L270.175 639.788C274.829 628.768 281.525 608.313 284.887 596.615C291.574 572.698 297.102 548.473 301.452 524.023C302.932 515.603 302.773 502.486 305.295 495.2Z"/><path fill="#D9B692" d="M307.014 474.688C307.747 474.289 308.837 473.388 309.541 472.851C314.711 478.757 319.947 484.118 325.151 490.251C351.991 526.424 372.335 566.989 385.273 610.134C391.075 630.124 393.839 645.201 398.065 665.061C407.967 665.345 418.539 665.288 428.372 665.086C495.953 663.697 573.126 666.988 627.326 619.426C631.896 615.416 636.417 611.117 640.879 606.942C641.082 609.758 640.692 611.994 640.599 614.754C584.383 673.064 499.809 669.375 424.755 670.821C420.544 670.902 399.817 670.263 396.919 671.326C396.057 671.173 393.735 670.611 393.441 669.986C391.012 664.822 389.221 651.168 388.186 645.833C378.482 595.812 357.678 546.635 329.243 504.408C326.46 500.274 320.058 490.864 316.901 487.247C313.168 486.675 311.938 487.985 309.021 489.886C304.663 492.726 306.756 493.874 305.295 495.2C305.039 493.492 306.563 478.391 306.596 474.033L307.014 474.688Z"/><path fill="#542A10" d="M306.596 474.033L307.014 474.688C308.922 478.262 314.285 482.769 316.901 487.247C313.168 486.675 311.938 487.985 309.021 489.886C304.663 492.726 306.756 493.874 305.295 495.2C305.039 493.492 306.563 478.391 306.596 474.033Z"/><path fill="#D9B692" d="M439.855 612.056C487.834 611.272 534.596 613.128 575.794 583.969L574.775 586.213C575.929 586.642 575.32 586.521 576.608 586.548C568.386 592.315 559.28 598.257 549.912 602.076C518.77 614.774 474.051 617.737 440.739 615.55L439.698 614.918C439.351 613.413 439.361 613.524 439.855 612.056Z"/><path fill="#D9B692" d="M604.94 547.398L607.662 547.69L608.198 548.416C606.202 558.33 585.087 579.969 576.608 586.548C575.32 586.521 575.929 586.642 574.775 586.213L575.794 583.969C575.816 583.947 575.837 583.925 575.859 583.904C586.041 576.082 600.061 559.229 604.94 547.398Z"/><path fill="#D9B692" d="M687.966 466.484L693.937 465.545C693.983 479.14 693.898 489.614 692.456 503.159C688.209 543.054 669.572 585.691 641.003 614.354L640.599 614.754C640.692 611.994 641.082 609.758 640.879 606.942C676.925 565.955 690.087 520.371 687.966 466.484Z"/><path fill="#9C6334" d="M700.528 463.982C705.616 464.92 751.051 488.717 756.521 492.746C751.397 490.936 748.089 493.79 743.297 492.236C740.876 491.451 737.671 488.62 736.925 486.099C729.953 485.817 720.166 489.442 714.333 486.437C706.543 482.425 709.581 472.565 708.164 468.296C706.936 466.723 703.316 465.625 701.328 464.969L700.374 464.662L700.528 463.982Z"/></svg>